<?xml version="1.0" encoding="UTF-8" standalone="no"?>
<!-- Created with Inkscape (http://www.inkscape.org/) -->

<svg
   version="1.1"
   id="svg1"
   width="512"
   height="433.33334"
   viewBox="0 0 512 433.33334"
   xmlns="http://www.w3.org/2000/svg"
   xmlns:svg="http://www.w3.org/2000/svg">
  <defs
     id="defs1" />
  <g
     id="g1">
    <path
       id="path3"
       style="display:inline;opacity:1;fill:#000000"
       d="M 296.79102 58.914062 A 65.253584 65.253584 0 0 0 289.89648 60.097656 A 299.82215 299.82215 0 0 0 258.00781 69.978516 A 1151.3465 1151.3465 0 0 0 198.31445 91.638672 L 177.72852 99.599609 A 394.8492 394.8492 0 0 0 158.87305 107.45508 A 1070.139 1070.139 0 0 0 135.29492 118.47656 L 132.90625 119.61523 A 362.97876 362.97876 0 0 0 111.93945 130.46484 L 106.53516 133.48828 A 143.17731 143.17731 0 0 0 100.56055 137.02344 L 99.740234 137.53711 A 572.70695 572.70695 0 0 1 96.558594 139.51172 A 25.67609 25.67609 0 0 0 92.431641 143.01367 L 92.359375 143.08203 A 28.100856 28.100856 0 0 0 88.40625 147.79883 L 88.341797 147.89453 A 28.402875 28.402875 0 0 0 86.017578 152.11523 L 85.832031 152.53516 A 17.49039 17.49039 0 0 0 84.845703 155.39453 A 27.434473 27.434473 0 0 0 84.300781 158.43945 A 100.40075 100.40075 0 0 0 84.117188 171.86914 L 84.320312 302.05273 A 67.103557 67.103557 0 0 0 84.396484 305.15625 A 24.696932 24.696932 0 0 0 85.214844 309.62891 L 87.222656 313.64258 L 87.552734 314.39062 A 19.716516 19.716516 0 0 0 90.791016 319.44336 A 30.021135 30.021135 0 0 0 96.669922 325.62109 A 38.947328 38.947328 0 0 0 100.95312 328.62305 A 61.371636 61.371636 0 0 0 106.61914 331.64453 A 79.709003 79.709003 0 0 0 116.1543 335.25977 A 279.66974 279.66974 0 0 0 131.02344 339.64258 A 656.16011 656.16011 0 0 0 160.71484 346.6582 A 952.85162 952.85162 0 0 0 204.69336 355.21289 L 210.72656 356.26562 A 823.18466 823.18466 0 0 0 241.31055 361.01367 A 1777.2444 1777.2444 0 0 0 287.47656 366.40039 L 300.45117 367.82227 A 498.07715 498.07715 0 0 0 329.58203 370.14844 A 301.68237 301.68237 0 0 0 353.79688 370.38281 L 357.50586 370.27148 A 100.63943 100.63943 0 0 0 370.09375 369.09961 L 371.90234 368.81641 A 25.747464 25.747464 0 0 0 378.2793 366.94727 A 21.100711 21.100711 0 0 0 384.22461 362.53125 L 384.26367 362.49414 A 28.485928 28.485928 0 0 0 388.99805 356.50781 A 24.088851 24.088851 0 0 0 391.58594 349.37891 L 391.72266 348.75977 A 27.9322 27.9322 0 0 0 392.38867 342.69922 A 567.07473 567.07473 0 0 1 392.75781 326.93945 L 392.98047 318.91797 A 203.00788 203.00788 0 0 0 393.05859 313.27539 A 2.218872 2.218872 0 0 0 390.33984 311.33398 A 91.692904 91.692904 0 0 1 378.05664 312.08203 L 377.8457 312.08203 A 91.66524 91.66524 0 0 1 367.25977 311.46875 A 58.762286 58.762286 0 0 1 355.82617 308.63672 L 355.27539 308.45508 A 37.188395 37.188395 0 0 1 345.46484 303.53711 A 37.534747 37.534747 0 0 1 338.13086 296.51172 A 44.363107 44.363107 0 0 1 332.8457 288.27344 A 41.825523 41.825523 0 0 1 329.65039 278.93164 L 329.57617 278.61719 A 39.667588 39.667588 0 0 1 328.54297 270.03516 A 42.194527 42.194527 0 0 1 329.25 262.25977 A 49.248274 49.248274 0 0 1 332.04492 253.15039 A 32.51343 32.51343 0 0 1 337.64258 243.99414 A 42.995954 42.995954 0 0 1 346.78125 236.25195 A 47.408635 47.408635 0 0 1 359.35742 230.58398 A 63.484874 63.484874 0 0 1 374.69922 228.16211 L 376.97852 228.03906 A 224.85225 224.85225 0 0 0 387.25781 227.24609 L 391.13867 226.85742 A 1.1931527 1.1931527 0 0 0 391.71289 226.64062 L 391.90039 226.50781 A 1.2219026 1.2219026 0 0 0 392.40039 225.68555 L 392.46094 225.26758 A 127.58774 127.58774 0 0 0 393.70508 204.26953 L 393.55664 197.85742 A 50.972221 50.972221 0 0 0 393.25977 193.42773 A 11.236795 11.236795 0 0 0 392.07617 189.6582 A 8.8795723 8.8795723 0 0 0 389.80078 186.82617 A 20.86792 20.86792 0 0 0 386.63477 184.71875 A 25.94636 25.94636 0 0 0 378.40234 182.58789 A 2274.9109 2274.9109 0 0 0 228.69727 164.65234 L 111.93945 150.95117 A 0.68646895 0.68646895 0 0 1 111.50391 149.81641 A 17.746378 17.746378 0 0 1 113.18945 148.15625 A 31.846594 31.846594 0 0 1 117.30469 145.36719 A 195.62835 195.62835 0 0 1 126.63867 139.98047 A 427.54698 427.54698 0 0 1 157.70312 125.3125 A 1092.6106 1092.6106 0 0 1 208.49805 103.99805 L 214.26758 101.71875 A 1027.977 1027.977 0 0 1 251.78516 87.736328 L 257.35938 85.78125 A 1352.3264 1352.3264 0 0 1 277.18164 79.001953 L 283.87305 76.771484 A 39.243425 39.243425 0 0 1 286.78516 75.923828 A 27.744247 27.744247 0 0 1 289.83008 75.376953 A 20.729808 20.729808 0 0 1 293.66602 75.298828 L 293.9082 75.310547 A 13.497655 13.497655 0 0 1 297.16992 75.888672 A 10.973958 10.973958 0 0 1 299.82422 77.150391 L 299.97266 77.246094 A 16.024667 16.024667 0 0 1 301.78711 78.589844 A 11.470918 11.470918 0 0 1 303.34766 80.294922 A 15.571135 15.571135 0 0 1 305.0332 83.285156 A 529.35531 529.35531 0 0 1 322.03125 129.89648 L 334.14648 163.49023 A 7.1609056 7.1609056 0 0 0 338.42188 167.78711 L 339.11719 168.04102 A 11.865277 11.865277 0 0 0 342.98438 168.76172 L 348.5 168.85938 A 2.270922 2.270922 0 0 0 349.25781 168.74414 A 2.0613469 2.0613469 0 0 0 350.16211 167.66211 A 2.3092315 2.3092315 0 0 0 350.19531 165.63086 A 2004.8517 2004.8517 0 0 1 330.08398 107.97852 L 318.11328 72.921875 A 141.32357 141.32357 0 0 0 316.69922 68.974609 A 22.952605 22.952605 0 0 0 315.11523 65.652344 L 314.92188 65.3125 A 5.9390523 5.9390523 0 0 0 313.33008 63.509766 A 23.34904 23.34904 0 0 0 311.05469 62.048828 A 34.051706 34.051706 0 0 0 307.27539 60.242188 A 18.864914 18.864914 0 0 0 301.97656 58.96875 L 301.93945 58.964844 A 24.542409 24.542409 0 0 0 296.79102 58.914062 z M 360.07617 96.966797 L 356.52734 97.041016 A 181.44437 181.44437 0 0 0 347.09766 98.181641 L 347.03906 98.189453 A 147.19126 147.19126 0 0 0 339.60352 99.404297 L 338.64258 99.775391 L 338.18164 100.88867 L 339.4707 104.67578 L 359.22461 162.74805 A 116.77487 116.77487 0 0 0 361.33203 168.58203 L 361.84961 169.54297 L 362.51367 170.20898 L 366.35742 170.87305 L 371.12891 171.64258 A 207.1166 207.1166 0 0 0 379.04883 172.75977 A 22.216029 22.216029 0 0 0 381.73047 172.94336 L 381.11133 118.03906 A 88.844504 88.844504 0 0 0 380.84375 111.45117 L 380.32617 109.16016 L 379.73438 107.3125 L 377.88672 104.72656 L 375.15234 102.36133 A 32.990975 32.990975 0 0 0 367.41797 98.257812 A 16.302383 16.302383 0 0 0 363.99219 97.410156 L 360.07617 96.966797 z M 249.06641 99.636719 L 248.14258 99.783203 L 247.36523 100.12305 L 246.73242 100.56055 L 246.29492 100.90039 L 245.95508 101.28906 L 245.66211 101.72656 L 245.41992 102.45703 L 245.27344 103.08984 L 245.22461 103.7207 L 245.22461 104.5 L 245.32227 105.08203 L 245.51758 105.76367 L 245.75977 106.54102 L 246.00391 107.27148 A 8.8968418 8.8968418 0 0 0 246.34375 108.14648 L 246.3125 108.50977 L 244.82422 109.55078 L 243.80469 110.47852 A 19.538822 19.538822 0 0 0 242.65234 111.61914 A 32.039736 32.039736 0 0 0 239.44727 115.88477 A 21.940919 21.940919 0 0 0 238.00586 118.93359 A 14.525666 14.525666 0 0 0 237.30078 121.07422 A 15.494577 15.494577 0 0 0 236.9707 123.21289 A 19.764621 19.764621 0 0 0 236.86523 125.15625 A 36.834436 36.834436 0 0 0 236.84375 126.42969 A 12.461831 12.461831 0 0 0 237.14062 129 A 7.8278886 7.8278886 0 0 0 238.74023 131.66211 A 14.084536 14.084536 0 0 0 239.87695 132.8457 L 241.57812 134.39844 A 14.641709 14.641709 0 0 0 246.75586 137.20898 A 22.985714 22.985714 0 0 0 251.78516 138.02344 L 256.74219 138.31836 A 2.9604771 2.9604771 0 0 1 259.18359 140.59961 L 263.56641 151.85742 A 4.4617047 4.4617047 0 0 1 263.83594 152.92188 A 1.1807622 1.1807622 0 0 1 263.81641 153.19727 L 263.80469 153.30859 A 0.50371921 0.50371921 0 0 1 263.62891 153.63672 A 2.2764731 2.2764731 0 0 1 262.79102 153.97656 L 261.91992 153.85352 L 261.75391 153.81445 A 41.620064 41.620064 0 0 1 255.48438 151.78125 A 8.3456001 8.3456001 0 0 0 252.25 151.33789 A 5.5390005 5.5390005 0 0 0 250.7832 151.61523 A 2.8484409 2.8484409 0 0 0 249.71484 152.37305 A 6.3785827 6.3785827 0 0 0 248.37891 154.00586 A 4.9987006 4.9987006 0 0 0 247.88281 155.39453 A 2.88487 2.88487 0 0 0 247.93945 156.66406 A 2.2512298 2.2512298 0 0 0 248.75195 157.77344 L 249.19727 158.06836 L 271.69141 159.89062 A 10.420373 10.420373 0 0 0 275.92383 160.12891 L 276.12109 159.84766 L 276.06445 159.39844 L 276.06445 158.97656 L 281.85547 153.66797 A 20.242088 20.242088 0 0 0 282.46484 153.08594 A 6.0284236 6.0284236 0 0 0 283.05469 152.37305 A 71.755586 71.755586 0 0 0 283.63672 151.56641 A 11.222459 11.222459 0 0 0 284.23828 150.53711 A 7.9958589 7.9958589 0 0 0 284.73438 149.29297 A 10.054907 10.054907 0 0 0 285.03125 148.0957 A 14.403884 14.403884 0 0 0 285.24414 145.58789 L 285.24414 143.88672 L 285.24414 140.96875 A 10.160878 10.160878 0 0 0 284.99219 139.21484 A 12.220691 12.220691 0 0 0 284.5918 137.89648 A 7.0015329 7.0015329 0 0 0 284.2207 137.04102 A 9.3479781 9.3479781 0 0 0 283.21484 135.54102 A 23.843462 23.843462 0 0 0 282.00195 134.11523 A 9.9736239 9.9736239 0 0 0 280.93359 133.125 A 28.8221 28.8221 0 0 0 279.30859 131.89844 A 12.237752 12.237752 0 0 0 277.77148 131.05078 L 277.70312 131.01367 A 14.173822 14.173822 0 0 0 276.92383 130.62305 L 276.52734 130.44141 A 5.7329163 5.7329163 0 0 0 275.22656 130.01953 L 275.06836 129.98828 A 20.123443 20.123443 0 0 0 273.32812 129.72656 A 60.707709 60.707709 0 0 0 271.625 129.57031 L 270.83008 129.50781 A 85.523433 85.523433 0 0 0 269.2207 129.39844 A 490.99982 490.99982 0 0 1 265.35742 129.15234 L 263.89844 128.8125 L 263.36328 128.42383 A 3606.5785 3606.5785 0 0 1 259.42383 118.69727 L 258.9375 117.09375 L 258.64648 115.87695 A 0.83279915 0.83279915 0 0 1 258.88867 115.00195 L 261.12695 115.43945 A 86.668732 86.668732 0 0 0 267.64258 117.14258 A 4.4012776 4.4012776 0 0 0 269.3457 117.1582 A 3.1304415 3.1304415 0 0 0 270.36523 116.70508 A 2.8622435 2.8622435 0 0 0 271.50977 114.73242 A 19.29225 19.29225 0 0 0 271.875 113.0918 A 4.9056758 4.9056758 0 0 0 271.9707 112.12695 A 27.154395 27.154395 0 0 0 271.92969 110.89062 A 7.6026957 7.6026957 0 0 0 271.7832 109.93359 A 3.2684864 3.2684864 0 0 0 270.84961 108.54492 A 7.160212 7.160212 0 0 0 269.21094 107.29102 A 7.4643912 7.4643912 0 0 0 267.62109 106.58984 A 12.112167 12.112167 0 0 0 266.75586 106.32031 A 16.951369 16.951369 0 0 0 263.33203 105.91797 A 68.082381 68.082381 0 0 0 257.96484 105.76367 L 256.06836 105.71484 L 255.24219 105.56836 L 254.95117 105.27734 L 254.56055 104.25586 L 254.26953 103.23438 L 253.68555 102.21289 L 252.85938 100.90039 L 252.13086 100.26758 L 250.81641 99.783203 L 249.94141 99.636719 L 249.06641 99.636719 z M 250.5332 117.95898 L 251.87891 121.01562 L 252.47461 122.37109 A 54.117552 54.117552 0 0 0 253.5957 124.76172 A 27.013147 27.013147 0 0 1 254.38281 126.53711 A 4.4660343 4.4660343 0 0 1 254.55859 127.16211 A 1.7444068 1.7444068 0 0 1 254.58008 127.58984 L 254.58008 127.60938 A 1.0246905 1.0246905 0 0 1 254.47266 128.06836 A 1.0667533 1.0667533 0 0 1 253.70703 128.47852 A 4.5844154 4.5844154 0 0 1 252.03125 128.37695 A 8.0596851 8.0596851 0 0 1 248.7168 126.74609 A 7.4112061 7.4112061 0 0 1 247.6875 125.69336 A 3.0749729 3.0749729 0 0 1 247.21484 124.83594 A 4.5155868 4.5155868 0 0 1 246.95117 123.48047 A 5.8725608 5.8725608 0 0 1 247.30469 121.58203 A 3.1704179 3.1704179 0 0 1 247.71094 120.79883 A 8.6148405 8.6148405 0 0 1 248.70508 119.35156 L 249.03125 118.95312 A 2.571584 2.571584 0 0 1 249.19531 118.77344 A 3.1900184 3.1900184 0 0 1 250.5332 117.95898 z M 268.89258 138.58789 A 2.593419 2.593419 0 0 1 270.46289 138.83789 A 17.218154 17.218154 0 0 1 273.10352 140.0625 A 3.8252675 3.8252675 0 0 1 274.8457 141.56055 A 3.6184408 3.6184408 0 0 1 275.30469 142.66797 A 7.2063192 7.2063192 0 0 1 275.5 143.83594 A 7.5728798 7.5728798 0 0 1 275.45898 145.31445 A 6.5890394 6.5890394 0 0 1 274.98633 146.93359 A 18.092167 18.092167 0 0 1 274.20898 148.59961 A 7.9364582 7.9364582 0 0 1 273.15039 150.03906 A 2.108456 2.108456 0 0 1 272.00781 150.5 A 1.0169641 1.0169641 0 0 1 270.91211 149.98438 L 270.6543 149.21094 A 48.185623 48.185623 0 0 1 269.10352 143.64453 L 268.19141 139.92383 A 1.5170037 1.5170037 0 0 1 268.29297 138.91406 A 0.85660027 0.85660027 0 0 1 268.89258 138.58789 z M 394.69336 160.25 L 394.17188 160.38086 L 393.51953 160.64258 L 392.86719 161.0332 L 392.47656 161.81445 A 49.894328 49.894328 0 0 0 393.65039 175.89844 L 397.04102 177.20117 A 17.856384 17.856384 0 0 1 402.75 181.125 A 12.6352 12.6352 0 0 1 404.54297 183.45508 A 14.591824 14.591824 0 0 1 405.64648 185.54688 A 5.3695147 5.3695147 0 0 1 406.03711 188.28516 L 405.57031 229.59375 A 4.6413717 4.6413717 0 0 1 405.14648 231.47852 A 5.9356228 5.9356228 0 0 1 403.51758 233.29102 L 403.4375 233.36328 A 10.382096 10.382096 0 0 1 401.4043 234.77734 A 13.700842 13.700842 0 0 1 397.92773 236.04688 A 111.61639 111.61639 0 0 1 391.69531 237.18164 A 178.35869 178.35869 0 0 1 381.53125 237.91016 A 42.135083 42.135083 0 0 1 378.22656 237.91016 A 604.71201 604.71201 0 0 0 369.97852 237.79492 A 27.728506 27.728506 0 0 0 367.11523 237.98242 A 21.957532 21.957532 0 0 0 364.20703 238.53516 A 46.244281 46.244281 0 0 0 358.57617 240.44141 A 41.553286 41.553286 0 0 0 352.58984 243.66211 A 31.86783 31.86783 0 0 0 346.49023 249.22656 A 31.453389 31.453389 0 0 0 343.69141 252.9668 A 31.271129 31.271129 0 0 0 340.41211 259.60938 A 35.323454 35.323454 0 0 0 338.88672 265.99805 A 22.281786 22.281786 0 0 0 338.77148 275.29492 A 33.667276 33.667276 0 0 0 340.18945 281.38477 A 26.47347 26.47347 0 0 0 343.43164 287.78906 A 66.075411 66.075411 0 0 0 346.66602 292.25977 A 22.674615 22.674615 0 0 0 352.31641 297.03125 A 21.699388 21.699388 0 0 0 359.46484 300.39648 A 33.204586 33.204586 0 0 0 364.82812 301.49219 A 89.14365 89.14365 0 0 0 375.52539 302.24609 L 381.60156 302.24609 A 47.061713 47.061713 0 0 0 385.35352 302.0957 L 388.12695 301.875 A 40.672893 40.672893 0 0 0 391.85156 301.40234 L 394.14648 301.00391 A 45.677055 45.677055 0 0 0 397.81641 300.20898 L 400.69922 299.45898 A 44.967214 44.967214 0 0 0 404.29102 298.36328 L 405.56836 297.91406 A 39.800182 39.800182 0 0 0 409.04883 296.50391 A 23.916487 23.916487 0 0 0 412.29688 294.68359 L 413.07812 294.16211 A 29.850474 29.850474 0 0 0 416.0625 291.88867 A 36.765558 36.765558 0 0 0 417.92969 290.0957 L 418.08008 289.94727 A 12.762787 12.762787 0 0 0 420.30078 286.96484 A 6.3936344 6.3936344 0 0 0 420.93555 283.91992 L 421.01758 252.57031 A 1831.6989 1831.6989 0 0 0 421.00977 240.57031 L 420.79492 185.67969 A 28.903526 28.903526 0 0 0 419.46875 176.02734 A 21.277373 21.277373 0 0 0 413.5 168.12305 A 33.086998 33.086998 0 0 0 408.23047 164.29297 A 24.012185 24.012185 0 0 0 401.86914 161.85547 A 88.19122 88.19122 0 0 0 397.29297 160.54492 A 16.291859 16.291859 0 0 0 394.69336 160.25 z M 194.61719 218.06836 C 198.58059 218.275 202.56141 219.54914 204.69922 222.04102 C 208.24913 226.17894 208.13804 237.82596 203.1543 242.10156 C 199.01637 245.65147 187.36936 245.54038 183.09375 240.55664 C 179.54384 236.41872 179.65493 224.7717 184.63867 220.49609 C 186.70763 218.72114 190.65378 217.86172 194.61719 218.06836 z M 286.25781 218.06836 C 290.22143 218.27517 294.20204 219.54914 296.33984 222.04102 C 299.88976 226.17894 299.77867 237.82596 294.79492 242.10156 C 290.657 245.65147 279.01065 245.54248 274.73438 240.55859 C 271.1839 236.42055 271.29287 224.77168 276.27734 220.49609 C 278.34661 218.72114 282.2942 217.86155 286.25781 218.06836 z M 371.61133 257.57812 C 373.77139 257.57813 375.932 257.94229 377.4043 258.66992 C 381.19504 260.54337 383.94803 264.1985 384.57031 268.54102 C 384.71741 269.56753 384.71726 271.26057 384.57031 272.28711 C 383.94858 276.63042 381.19564 280.28642 377.4043 282.16016 C 374.4597 283.61542 368.76296 283.61542 365.81836 282.16016 C 363.23932 280.88556 361.1414 278.78627 359.86719 276.20703 C 358.41237 273.26222 358.41192 267.56569 359.86719 264.62109 C 361.14149 262.04265 363.23992 259.94422 365.81836 258.66992 C 367.29066 257.94229 369.45126 257.57812 371.61133 257.57812 z M 272.14258 267.02148 A 5.3159175 5.3159175 0 0 1 273.59961 267.14258 A 3.8005026 3.8005026 0 0 1 274.84375 267.66602 A 8.5615971 8.5615971 0 0 1 276.00977 268.59375 A 2.7687541 2.7687541 0 0 1 276.77539 270.03516 A 10.856169 10.856169 0 0 1 277.01367 272.02734 A 13.721623 13.721623 0 0 1 276.89258 274.35547 L 276.87695 274.48438 A 18.01859 18.01859 0 0 1 276.5332 276.38672 L 276.51367 276.47461 A 15.762943 15.762943 0 0 1 276.13086 277.82422 A 20.460981 20.460981 0 0 1 274.89453 280.47656 A 24.775438 24.775438 0 0 1 272.5918 284.14062 A 39.590842 39.590842 0 0 1 268.69336 288.44531 A 54.150944 54.150944 0 0 1 263.36523 293.05273 L 262.44141 293.76367 A 28.475839 28.475839 0 0 1 259.05078 296.00195 A 29.857007 29.857007 0 0 1 254.05078 298.03906 L 252.9668 298.41211 A 29.963621 29.963621 0 0 1 249.26172 299.42578 A 35.548733 35.548733 0 0 1 245.11328 299.96484 A 72.533609 72.533609 0 0 1 240.65234 300.20117 A 45.73618 45.73618 0 0 1 235.58398 299.96875 L 235.02344 299.91992 A 38.891719 38.891719 0 0 1 231.00195 299.35352 L 230.66211 299.28906 A 41.459061 41.459061 0 0 1 228.09375 298.70312 A 42.359897 42.359897 0 0 1 224.83203 297.65625 A 26.823042 26.823042 0 0 1 221.13281 296.02148 A 79.126188 79.126188 0 0 1 217.81445 294.15234 A 35.889989 35.889989 0 0 1 212.98047 290.40625 L 212.51172 290.00781 A 51.007195 51.007195 0 0 1 208.16016 285.82812 A 22.309387 22.309387 0 0 1 205.20703 281.79688 L 205.12891 281.66211 A 35.388153 35.388153 0 0 1 203.38672 278.20703 L 203.16797 277.70508 A 14.59921 14.59921 0 0 1 202.47461 275.75781 A 11.422208 11.422208 0 0 1 202.13672 273.77734 A 10.64196 10.64196 0 0 1 202.1582 271.71484 L 202.19141 271.36914 A 11.568476 11.568476 0 0 1 202.35938 270.25195 A 3.0471903 3.0471903 0 0 1 203.05859 269.02148 L 203.07227 269.00586 A 7.1357776 7.1357776 0 0 1 204.16797 267.88867 A 3.0037338 3.0037338 0 0 1 205.5 267.31445 A 6.973634 6.973634 0 0 1 207.23438 267.23242 A 5.2980243 5.2980243 0 0 1 208.92773 267.60938 A 10.142072 10.142072 0 0 1 210.82812 268.71484 A 146.2097 146.2097 0 0 0 213.71094 270.61523 A 91.482147 91.482147 0 0 0 217.85938 273.11133 L 218.14258 273.27344 A 122.95372 122.95372 0 0 0 221.87695 275.33398 A 30.8577 30.8577 0 0 0 225.30664 276.87109 A 27.777481 27.777481 0 0 0 228.67969 277.9043 A 44.260679 44.260679 0 0 0 231.83984 278.54492 A 31.22526 31.22526 0 0 0 235.41797 278.88281 L 235.84375 278.90234 A 91.172008 91.172008 0 0 1 238.61914 279.08398 A 35.526036 35.526036 0 0 0 241.47266 279.17578 L 241.54883 279.17578 A 30.839686 30.839686 0 0 0 246.68555 279.06445 A 19.970187 19.970187 0 0 0 249.15039 278.69531 A 68.629431 68.629431 0 0 0 251.79297 278.08008 A 20.669049 20.669049 0 0 0 254.66992 277.09961 A 235.32274 235.32274 0 0 0 257.53906 275.88867 A 20.30552 20.30552 0 0 0 260.08398 274.56641 A 55.839098 55.839098 0 0 0 262.73633 272.82227 L 263.01172 272.63281 A 43.761307 43.761307 0 0 0 265.05078 271.13867 A 63.256958 63.256958 0 0 1 266.86523 269.7832 L 266.94531 269.72656 A 60.568184 60.568184 0 0 0 268.40234 268.63867 L 268.5 268.5625 A 6.4390529 6.4390529 0 0 1 269.54688 267.9082 A 42.148674 42.148674 0 0 1 270.7207 267.34766 A 3.9981098 3.9981098 0 0 1 272.14258 267.02148 z M 416.93945 302.41406 A 0.63006547 0.63006547 0 0 0 416.62109 302.50391 A 12.42636 12.42636 0 0 1 416.13086 302.78125 L 405.38281 308.61914 A 0.62840737 0.62840737 0 0 0 405.05469 309.16992 L 404.94922 331.44531 A 17.316735 17.316735 0 0 1 404.93164 332.18945 L 404.75195 335.94336 A 10.345263 10.345263 0 0 1 404.68945 336.68359 L 404.45703 338.62305 A 17.987766 17.987766 0 0 1 404.35352 339.35938 L 404.10938 340.86523 A 187.45364 187.45364 0 0 1 403.38477 345.0332 L 403.29492 345.51758 A 28.309665 28.309665 0 0 1 402.21875 349.59766 L 401.75 350.95312 A 13.715445 13.715445 0 0 0 401.52734 351.66211 L 401.51758 351.69727 A 2.6545424 2.6545424 0 0 0 401.41406 352.42578 A 1.5497604 1.5497604 0 0 0 401.52148 352.91211 L 401.73633 353.01758 L 401.95117 353.01758 A 2.3732973 2.3732973 0 0 0 402.82422 352.75781 L 403.75195 352.33594 A 10.984576 10.984576 0 0 0 405.79883 351.12305 L 408.63086 348.99805 A 11.519386 11.519386 0 0 0 410.31836 347.44727 L 413.51172 343.86523 A 7.6297301 7.6297301 0 0 0 414.28516 342.83203 L 416.04297 340.02344 A 11.076551 11.076551 0 0 0 417.00586 338.08008 L 417.55664 336.625 A 5.6506314 5.6506314 0 0 0 417.88086 335.32227 L 417.93945 334.84961 A 10.408601 10.408601 0 0 0 418.01953 333.70703 L 418.43359 304.45703 A 4.9885577 4.9885577 0 0 0 418.39062 303.7168 A 1.3593542 1.3593542 0 0 0 418.11133 303.06445 A 1.5498842 1.5498842 0 0 0 417.78906 302.81055 L 417.74609 302.77734 L 417.26172 302.49805 A 0.63006547 0.63006547 0 0 0 416.93945 302.41406 z " />
  </g>
</svg>
