<svg xmlns="http://www.w3.org/2000/svg" xmlns:xlink="http://www.w3.org/1999/xlink" id="svg" version="1.1" width="400" height="301.2704174228675" viewBox="0, 0, 400,301.2704174228675"><g id="svgg"><path id="path0" d="M167.596 21.732 C 151.740 22.026,141.633 22.692,128.711 24.291 C 124.976 24.753,124.001 24.917,118.011 26.089 C 81.205 33.290,62.526 54.580,56.670 96.006 C 55.469 104.498,54.918 110.338,54.192 122.231 C 53.660 130.944,53.657 180.027,54.187 186.586 C 55.353 200.992,56.075 207.880,56.967 213.112 C 57.734 217.606,58.922 223.490,59.554 225.923 C 59.941 227.415,60.345 228.975,60.451 229.390 C 60.781 230.679,62.125 234.935,62.402 235.569 C 62.547 235.901,63.029 237.121,63.472 238.282 C 68.120 250.458,77.144 261.810,87.867 268.972 C 89.028 269.747,90.113 270.484,90.279 270.609 C 90.445 270.734,91.326 271.233,92.238 271.718 C 93.150 272.203,94.099 272.709,94.348 272.843 C 98.345 275.002,105.147 277.395,112.283 279.152 C 114.273 279.642,116.172 280.112,116.503 280.196 C 117.797 280.523,124.163 281.581,126.451 281.849 C 127.777 282.004,129.676 282.271,130.671 282.443 C 139.731 284.008,157.001 284.762,185.061 284.819 C 198.231 284.845,208.947 284.812,208.874 284.745 C 208.758 284.639,202.214 284.338,197.438 284.220 C 196.043 284.185,195.923 284.142,196.684 283.949 C 197.404 283.766,197.204 283.711,195.705 283.683 L 193.821 283.647 193.821 282.743 C 193.821 282.057,193.958 281.839,194.391 281.839 C 194.748 281.839,195.032 281.557,195.150 281.085 C 195.254 280.671,195.480 280.332,195.653 280.332 C 195.825 280.332,195.886 280.462,195.787 280.621 C 195.681 280.792,195.982 280.780,196.524 280.591 C 197.027 280.416,197.515 280.150,197.607 280.000 C 197.699 279.851,198.073 279.729,198.438 279.729 C 198.803 279.729,199.263 279.470,199.461 279.153 C 199.659 278.836,200.220 278.489,200.708 278.382 C 201.966 278.106,202.667 277.213,202.620 275.946 C 202.591 275.177,202.682 274.945,202.948 275.110 C 203.472 275.437,204.738 275.227,205.307 274.720 C 205.573 274.483,205.985 274.363,206.223 274.454 C 206.468 274.548,207.032 274.226,207.528 273.708 C 208.009 273.206,208.580 272.796,208.798 272.796 C 209.016 272.796,209.194 272.531,209.194 272.207 C 209.194 271.571,210.964 270.876,211.782 271.190 C 212.021 271.281,212.404 271.199,212.635 271.008 C 212.873 270.811,213.394 270.745,213.837 270.856 C 214.327 270.979,214.619 270.928,214.619 270.718 C 214.619 270.535,214.476 270.384,214.300 270.384 C 214.125 270.384,214.070 270.240,214.179 270.063 C 214.314 269.846,214.539 269.878,214.875 270.162 C 215.568 270.746,218.076 270.790,218.545 270.226 C 218.751 269.976,219.418 269.781,220.063 269.781 C 221.492 269.781,222.758 269.320,222.758 268.800 C 222.758 268.583,223.109 268.377,223.539 268.341 C 224.568 268.256,224.943 268.001,224.756 267.512 C 224.672 267.292,224.798 266.950,225.037 266.752 C 225.276 266.554,225.471 266.510,225.471 266.655 C 225.471 266.800,225.810 266.937,226.225 266.961 C 226.639 266.985,226.978 266.884,226.978 266.735 C 226.978 266.587,226.791 266.466,226.563 266.466 C 225.492 266.466,225.467 265.641,226.532 265.468 C 227.120 265.373,228.142 264.866,228.803 264.343 C 229.633 263.685,230.330 263.391,231.059 263.391 C 231.787 263.391,232.209 263.213,232.420 262.818 C 232.589 262.503,233.027 262.246,233.394 262.246 C 234.006 262.245,237.528 259.341,237.528 258.837 C 237.528 258.722,237.087 258.608,236.549 258.583 C 236.010 258.557,236.385 258.456,237.383 258.356 C 238.380 258.257,241.364 258.265,244.014 258.372 C 268.195 259.356,275.776 257.483,283.773 248.547 C 285.658 246.441,285.803 246.343,286.736 246.552 C 287.885 246.810,289.910 246.622,290.149 246.236 C 290.240 246.089,290.612 245.965,290.975 245.960 C 293.770 245.926,299.467 241.787,300.593 238.973 C 300.712 238.676,300.938 238.433,301.095 238.433 C 301.555 238.433,303.715 234.454,304.389 232.367 C 305.253 229.688,305.587 226.536,305.966 217.483 C 306.147 213.173,306.344 209.171,306.405 208.591 C 306.465 208.011,306.619 206.112,306.747 204.371 C 306.911 202.151,307.041 201.476,307.185 202.110 C 307.301 202.623,307.405 202.766,307.425 202.440 C 307.458 201.903,307.496 201.898,308.012 202.365 C 308.781 203.061,309.355 203.007,309.118 202.261 C 308.941 201.703,309.064 201.658,310.756 201.658 C 312.181 201.658,312.585 201.758,312.585 202.110 C 312.585 202.359,312.720 202.562,312.886 202.562 C 313.052 202.562,313.188 202.342,313.188 202.073 C 313.188 201.694,313.280 201.661,313.599 201.926 C 313.910 202.183,314.224 202.156,314.880 201.814 C 315.359 201.564,316.299 201.359,316.971 201.358 C 317.642 201.357,318.354 201.194,318.553 200.995 C 318.834 200.713,318.915 200.747,318.915 201.145 C 318.915 201.427,318.711 201.658,318.463 201.658 C 318.214 201.658,318.011 201.834,318.011 202.049 C 318.011 202.320,318.338 202.403,319.066 202.318 C 319.646 202.250,320.121 202.037,320.121 201.844 C 320.121 201.628,320.612 201.505,321.402 201.524 C 322.106 201.540,322.852 201.425,323.060 201.267 C 323.341 201.054,323.436 201.208,323.436 201.876 C 323.436 202.382,323.693 203.003,324.028 203.306 C 324.429 203.669,324.690 204.438,324.837 205.689 C 325.120 208.100,325.433 206.996,325.853 202.110 C 326.009 200.286,326.275 197.573,326.443 196.081 C 326.748 193.379,327.122 187.636,327.571 178.749 C 327.960 171.057,327.821 126.867,327.390 121.176 C 326.459 108.872,325.637 99.425,325.410 98.417 C 325.336 98.086,325.060 96.323,324.798 94.499 C 322.031 75.250,315.327 58.203,306.839 48.832 C 300.692 42.045,295.139 37.720,287.601 33.849 C 279.564 29.721,272.588 27.616,258.327 25.012 C 243.865 22.372,206.282 21.013,167.596 21.732 M227.129 46.097 C 230.647 47.692,233.319 50.814,234.760 55.011 C 235.102 56.006,236.145 58.990,237.078 61.643 C 238.756 66.413,245.928 87.629,247.930 93.745 C 248.500 95.486,250.531 101.522,252.445 107.159 C 255.992 117.610,256.237 118.637,255.162 118.583 C 253.041 118.476,245.777 117.474,245.510 117.251 C 245.331 117.103,245.010 116.264,244.797 115.386 C 244.319 113.421,243.653 111.466,242.913 109.852 C 242.604 109.178,242.351 108.464,242.351 108.265 C 242.351 108.067,242.225 107.669,242.071 107.381 C 241.918 107.093,241.424 105.705,240.974 104.295 C 240.059 101.427,239.480 100.197,239.088 100.287 C 238.942 100.320,238.872 99.981,238.931 99.533 C 238.990 99.085,238.949 98.922,238.841 99.171 C 238.580 99.768,238.108 100.065,237.411 100.071 C 237.097 100.073,236.671 100.308,236.464 100.591 C 236.156 101.012,236.002 101.038,235.633 100.732 C 235.384 100.525,235.000 100.394,234.779 100.442 C 234.496 100.502,234.354 100.085,234.294 99.020 C 234.192 97.225,234.015 96.660,233.630 96.898 C 233.287 97.109,230.901 94.837,230.887 94.285 C 230.873 93.737,229.822 92.540,229.356 92.540 C 229.054 92.540,229.048 92.459,229.329 92.178 C 229.862 91.645,229.802 90.322,229.254 90.533 C 228.962 90.645,228.873 90.555,228.985 90.263 C 229.154 89.824,228.021 88.650,227.411 88.631 C 227.235 88.625,226.698 88.210,226.217 87.709 C 225.694 87.163,225.096 86.830,224.729 86.880 C 224.290 86.939,223.986 86.685,223.662 85.990 C 223.408 85.443,222.979 85.014,222.683 85.010 C 222.142 85.004,222.048 84.753,222.143 83.572 C 222.174 83.199,222.053 82.894,221.875 82.894 C 221.698 82.894,221.552 83.097,221.552 83.346 C 221.552 83.595,221.417 83.798,221.251 83.798 C 221.085 83.798,220.950 83.657,220.950 83.484 C 220.950 83.311,220.683 82.884,220.357 82.534 C 220.031 82.184,219.826 81.798,219.902 81.677 C 219.977 81.555,219.845 81.294,219.608 81.097 C 219.371 80.901,219.246 80.558,219.331 80.337 C 219.419 80.109,219.222 79.850,218.877 79.741 C 218.542 79.634,218.334 79.372,218.416 79.159 C 218.498 78.945,218.356 78.596,218.100 78.384 C 217.422 77.821,217.491 76.564,218.200 76.564 C 219.269 76.564,219.616 75.711,218.691 75.359 C 218.161 75.157,217.933 74.894,218.042 74.610 C 218.135 74.369,218.071 74.086,217.901 73.981 C 217.732 73.876,217.662 73.609,217.747 73.387 C 217.841 73.143,217.640 72.933,217.240 72.856 C 216.681 72.747,216.704 72.721,217.390 72.686 C 217.836 72.664,218.273 72.529,218.360 72.387 C 218.448 72.245,218.185 72.193,217.775 72.272 C 217.155 72.390,217.029 72.295,217.022 71.701 C 217.014 71.065,216.978 71.046,216.702 71.521 C 216.531 71.815,216.264 71.976,216.108 71.880 C 215.665 71.606,215.777 70.836,216.260 70.836 C 216.498 70.836,216.777 70.702,216.878 70.538 C 216.979 70.375,216.880 70.310,216.657 70.396 C 216.040 70.633,214.861 68.825,214.861 67.643 C 214.861 66.991,214.715 66.616,214.461 66.616 C 213.854 66.616,213.101 64.940,213.519 64.521 C 213.767 64.274,213.697 64.144,213.258 64.029 C 212.782 63.904,212.654 63.601,212.632 62.543 C 212.616 61.812,212.440 61.018,212.240 60.777 C 211.993 60.480,211.978 60.278,212.193 60.145 C 212.731 59.812,212.542 58.858,211.905 58.692 C 211.481 58.581,211.360 58.379,211.500 58.015 C 211.671 57.569,211.555 57.521,210.672 57.669 C 208.889 57.970,206.041 58.622,205.727 58.801 C 205.561 58.896,204.815 59.153,204.069 59.373 C 200.080 60.546,177.556 68.325,173.926 69.782 C 173.346 70.015,171.447 70.741,169.706 71.396 C 161.242 74.578,149.844 79.004,147.852 79.883 C 147.189 80.175,145.901 80.715,144.989 81.082 C 144.077 81.450,143.060 81.867,142.728 82.010 C 129.787 87.591,127.057 88.788,122.984 90.664 C 119.705 92.175,112.029 95.842,111.228 96.280 C 110.814 96.507,108.540 97.725,106.176 98.987 C 99.298 102.659,94.952 105.696,95.814 106.229 C 95.982 106.333,99.011 106.749,102.544 107.153 C 106.077 107.557,109.646 107.968,110.475 108.066 C 111.304 108.165,113.067 108.370,114.393 108.524 C 119.249 109.085,124.702 109.733,127.054 110.028 C 134.752 110.993,136.740 111.224,146.496 112.288 C 150.392 112.713,154.461 113.185,155.539 113.337 C 156.616 113.488,159.058 113.762,160.965 113.944 C 164.262 114.260,168.464 114.756,173.775 115.455 C 178.865 116.125,183.569 116.701,187.340 117.115 C 189.495 117.352,192.411 117.686,193.821 117.856 C 195.230 118.027,197.536 118.296,198.945 118.453 C 204.531 119.076,212.114 119.973,213.112 120.128 C 213.693 120.218,215.524 120.417,217.182 120.571 C 220.101 120.843,222.349 121.094,228.033 121.786 C 229.525 121.967,233.595 122.460,237.076 122.880 C 245.964 123.953,246.738 124.048,252.148 124.739 C 254.800 125.077,259.344 125.640,262.246 125.988 C 284.419 128.652,286.067 130.658,284.888 153.559 L 284.702 157.155 283.798 157.418 C 283.301 157.562,278.960 157.800,274.152 157.946 C 264.003 158.255,263.116 158.424,257.122 161.194 C 233.238 172.229,237.164 207.037,263.009 213.399 C 266.493 214.257,274.788 214.560,280.606 214.043 C 283.898 213.751,284.693 213.757,284.890 214.076 C 285.118 214.445,285.041 221.276,284.696 231.198 C 284.410 239.425,282.606 244.353,278.582 247.902 C 278.002 248.414,277.243 249.082,276.895 249.388 C 272.453 253.294,263.866 254.346,244.310 253.379 C 232.690 252.805,230.109 252.604,218.839 251.395 C 217.430 251.243,214.853 250.972,213.112 250.790 C 206.198 250.071,199.031 249.244,194.876 248.687 C 193.715 248.531,191.748 248.271,190.505 248.110 C 183.261 247.168,181.991 246.991,173.926 245.803 C 170.615 245.315,169.260 245.099,164.659 244.325 C 163.127 244.067,161.025 243.728,159.987 243.571 C 158.950 243.414,157.355 243.150,156.443 242.985 C 155.531 242.820,152.802 242.343,150.378 241.925 C 147.954 241.508,144.969 240.970,143.746 240.730 C 142.523 240.490,141.183 240.230,140.769 240.152 C 140.104 240.026,131.190 238.191,127.958 237.515 C 125.677 237.037,109.209 232.923,107.460 232.394 C 106.963 232.244,105.607 231.836,104.446 231.488 C 89.632 227.048,83.703 222.810,79.575 213.715 C 78.158 210.593,78.071 207.438,78.071 159.287 C 78.071 114.648,78.087 113.373,78.665 111.112 C 81.018 101.911,87.290 96.742,109.068 86.055 C 112.273 84.482,114.945 83.195,115.005 83.195 C 115.066 83.195,117.106 82.246,119.539 81.085 C 121.972 79.925,124.010 78.975,124.067 78.975 C 124.125 78.975,124.888 78.652,125.763 78.258 C 131.014 75.890,136.648 73.533,146.496 69.583 C 149.397 68.419,152.217 67.267,152.763 67.022 C 153.308 66.777,155.207 66.025,156.983 65.351 C 158.758 64.676,160.889 63.861,161.718 63.539 C 162.547 63.217,163.836 62.749,164.582 62.500 C 165.328 62.251,166.209 61.929,166.541 61.784 C 171.934 59.434,202.847 48.959,209.947 47.076 C 220.157 44.368,222.964 44.209,227.129 46.097 M214.017 56.669 C 214.017 57.053,215.231 57.053,215.825 56.669 C 216.161 56.452,215.988 56.376,215.147 56.372 C 214.525 56.370,214.017 56.503,214.017 56.669 M218.165 56.581 C 218.540 56.653,219.082 56.650,219.371 56.575 C 219.659 56.499,219.352 56.440,218.689 56.444 C 218.026 56.447,217.790 56.509,218.165 56.581 M212.359 57.272 C 212.256 57.438,212.376 57.573,212.625 57.573 C 212.873 57.573,213.161 57.438,213.263 57.272 C 213.365 57.106,213.246 56.971,212.997 56.971 C 212.748 56.971,212.461 57.106,212.359 57.272 M265.603 70.710 C 270.555 71.646,273.797 74.282,275.532 78.782 C 276.775 82.004,276.936 84.598,277.150 104.858 L 277.322 121.245 275.888 121.056 C 274.311 120.849,271.513 120.466,266.955 119.833 C 263.353 119.332,263.494 119.473,262.114 114.996 C 261.500 113.007,260.736 110.717,260.416 109.907 C 260.096 109.097,259.834 108.248,259.834 108.019 C 259.834 107.790,259.705 107.367,259.546 107.080 C 259.245 106.531,255.201 94.539,253.959 90.508 C 253.562 89.221,252.337 85.592,251.235 82.442 C 250.134 79.292,249.125 76.375,248.992 75.961 C 248.860 75.546,248.514 74.622,248.224 73.906 C 247.905 73.121,247.805 72.497,247.971 72.330 C 248.539 71.763,256.793 70.570,262.137 70.284 C 262.658 70.256,264.217 70.448,265.603 70.710 M190.534 73.125 C 190.976 73.548,191.562 74.394,191.837 75.003 L 192.336 76.112 195.117 76.009 C 200.527 75.811,203.768 77.347,203.768 80.109 C 203.768 83.253,201.626 84.658,198.592 83.504 C 197.708 83.169,196.479 82.894,195.860 82.894 L 194.734 82.894 195.371 84.476 C 195.722 85.347,196.423 87.246,196.928 88.696 L 197.847 91.334 200.034 91.334 C 205.625 91.334,210.434 93.635,211.197 96.676 C 211.292 97.054,211.468 97.362,211.590 97.362 C 212.055 97.362,212.589 100.691,212.445 102.688 C 212.227 105.686,210.609 108.329,207.675 110.484 C 206.720 111.184,206.179 111.806,206.179 112.203 C 206.179 112.888,206.167 112.888,198.493 112.130 C 196.835 111.966,193.851 111.684,191.861 111.504 C 187.165 111.079,186.436 110.507,187.780 108.304 C 188.993 106.314,190.411 106.035,193.038 107.269 C 195.041 108.209,197.574 108.725,197.867 108.251 C 198.038 107.975,197.902 107.537,196.966 105.350 C 196.753 104.853,196.286 103.632,195.927 102.638 C 195.568 101.643,195.024 100.273,194.718 99.594 L 194.162 98.359 190.901 98.187 C 179.826 97.603,176.026 87.406,184.076 79.876 C 186.049 78.030,186.074 77.987,185.730 77.035 C 184.404 73.368,187.855 70.558,190.534 73.125 M188.546 84.933 C 186.499 86.437,186.962 90.296,189.272 90.989 C 190.357 91.314,191.711 91.451,191.711 91.237 C 191.711 90.437,189.331 84.713,188.998 84.712 C 188.915 84.712,188.711 84.811,188.546 84.933 M200.453 98.644 C 200.455 99.076,202.555 104.446,203.075 105.349 C 204.043 107.026,206.088 102.541,205.167 100.761 C 204.575 99.617,204.221 99.357,202.433 98.762 C 200.650 98.168,200.452 98.156,200.453 98.644 M289.676 114.437 C 297.509 116.659,300.149 118.765,302.470 124.642 C 303.048 126.107,303.067 127.132,303.160 161.351 L 303.255 196.552 302.468 197.895 C 300.217 201.736,293.394 205.311,285.876 206.589 C 280.301 207.536,278.741 207.686,274.546 207.681 C 263.212 207.665,257.732 205.601,252.737 199.466 C 242.884 187.366,249.253 168.905,264.606 165.060 C 266.086 164.689,268.154 164.582,273.821 164.582 C 283.575 164.582,288.932 163.468,292.022 160.796 L 293.142 159.827 293.142 145.249 L 293.142 130.671 292.328 129.013 C 291.058 126.428,288.296 124.101,285.504 123.264 L 284.250 122.889 284.250 120.873 C 284.250 119.764,284.161 117.599,284.052 116.063 L 283.854 113.269 285.484 113.489 C 286.380 113.611,288.267 114.037,289.676 114.437 M147.198 151.430 C 136.560 156.505,142.883 172.686,154.097 169.083 C 160.836 166.917,162.783 158.636,157.838 153.173 C 155.734 150.850,150.285 149.957,147.198 151.430 M208.713 151.321 C 201.376 154.227,201.166 165.708,208.392 168.817 C 217.954 172.930,226.306 161.442,219.439 153.622 C 217.124 150.985,212.216 149.932,208.713 151.321 M266.315 178.026 C 259.154 181.680,259.497 191.242,266.903 194.417 C 274.107 197.505,281.515 189.221,278.066 181.932 C 276.127 177.832,270.416 175.934,266.315 178.026 M158.378 184.743 C 156.385 185.959,156.273 188.599,158.060 192.270 C 166.887 210.409,195.371 210.981,205.215 193.218 C 207.869 188.428,207.354 184.950,203.894 184.301 C 202.763 184.089,201.530 184.721,198.794 186.915 C 188.949 194.811,175.056 194.161,162.362 185.209 C 160.704 184.039,159.721 183.924,158.378 184.743 M301.645 218.161 C 301.480 228.202,301.267 230.560,300.447 231.379 C 300.326 231.501,300.226 231.875,300.226 232.211 C 300.226 233.060,298.091 236.568,296.703 237.998 C 294.123 240.656,289.375 243.049,289.375 241.691 C 289.375 241.017,290.051 237.680,290.310 237.076 C 290.452 236.745,290.702 235.119,290.864 233.463 C 291.026 231.807,291.300 230.406,291.473 230.348 C 291.680 230.279,291.788 227.220,291.791 221.301 C 291.795 211.882,291.803 211.821,292.992 211.454 C 294.639 210.945,299.714 208.529,300.362 207.945 C 301.785 206.661,301.828 207.003,301.645 218.161 M210.173 271.803 C 209.366 271.958,209.283 272.396,210.023 272.597 C 211.569 273.016,212.189 273.070,212.356 272.800 C 212.459 272.634,212.350 272.574,212.113 272.666 C 211.850 272.766,211.622 272.590,211.522 272.210 C 211.433 271.869,211.246 271.609,211.106 271.631 C 210.966 271.654,210.546 271.731,210.173 271.803 M209.495 273.549 C 209.495 274.112,209.779 274.109,210.532 273.540 C 211.094 273.115,211.084 273.097,210.306 273.097 C 209.786 273.097,209.495 273.259,209.495 273.549 M201.195 280.234 C 200.530 280.367,199.684 281.473,200.005 281.793 C 200.114 281.901,200.450 281.684,200.752 281.311 C 201.055 280.938,201.450 280.633,201.631 280.633 C 201.811 280.633,201.959 280.497,201.959 280.332 C 201.959 280.166,201.925 280.049,201.884 280.071 C 201.843 280.094,201.533 280.167,201.195 280.234 M194.653 284.156 C 194.365 284.231,193.822 284.234,193.447 284.162 C 193.072 284.090,193.308 284.028,193.971 284.025 C 194.635 284.021,194.941 284.080,194.653 284.156 " stroke="none" fill="#28a9b2" fill-rule="evenodd"/><path id="path3" d="M215.222 56.051 C 214.477 56.305,214.478 56.308,215.373 56.342 C 216.073 56.369,216.175 56.443,215.825 56.669 C 215.211 57.066,214.092 57.047,213.956 56.637 C 213.882 56.417,212.652 56.638,210.315 57.292 C 207.005 58.219,205.435 58.902,208.325 58.159 C 210.984 57.475,211.720 57.442,211.500 58.015 C 211.360 58.379,211.481 58.581,211.905 58.692 C 212.542 58.858,212.731 59.812,212.193 60.145 C 211.978 60.278,211.993 60.480,212.240 60.777 C 212.440 61.018,212.616 61.812,212.632 62.543 C 212.654 63.601,212.782 63.904,213.258 64.029 C 213.697 64.144,213.767 64.274,213.519 64.521 C 213.101 64.940,213.854 66.616,214.461 66.616 C 214.715 66.616,214.861 66.991,214.861 67.643 C 214.861 68.825,216.040 70.633,216.657 70.396 C 216.880 70.310,216.979 70.375,216.878 70.538 C 216.777 70.702,216.498 70.836,216.260 70.836 C 215.777 70.836,215.665 71.606,216.108 71.880 C 216.264 71.976,216.531 71.815,216.702 71.521 C 216.978 71.046,217.014 71.065,217.022 71.701 C 217.029 72.295,217.155 72.390,217.775 72.272 C 218.185 72.193,218.448 72.245,218.360 72.387 C 218.273 72.529,217.836 72.664,217.390 72.686 C 216.704 72.721,216.681 72.747,217.240 72.856 C 217.640 72.933,217.841 73.143,217.747 73.387 C 217.662 73.609,217.732 73.876,217.901 73.981 C 218.071 74.086,218.135 74.369,218.042 74.610 C 217.933 74.894,218.161 75.157,218.691 75.359 C 219.616 75.711,219.269 76.564,218.200 76.564 C 217.491 76.564,217.422 77.821,218.100 78.384 C 218.356 78.596,218.498 78.945,218.416 79.159 C 218.334 79.372,218.542 79.634,218.877 79.741 C 219.222 79.850,219.419 80.109,219.331 80.337 C 219.246 80.558,219.371 80.901,219.608 81.097 C 219.845 81.294,219.977 81.555,219.902 81.677 C 219.826 81.798,220.031 82.184,220.357 82.534 C 220.683 82.884,220.950 83.311,220.950 83.484 C 220.950 83.657,221.085 83.798,221.251 83.798 C 221.417 83.798,221.552 83.595,221.552 83.346 C 221.552 83.097,221.698 82.894,221.875 82.894 C 222.053 82.894,222.174 83.199,222.143 83.572 C 222.048 84.753,222.142 85.004,222.683 85.010 C 222.979 85.014,223.408 85.443,223.662 85.990 C 223.986 86.685,224.290 86.939,224.729 86.880 C 225.096 86.830,225.694 87.163,226.217 87.709 C 226.698 88.210,227.235 88.625,227.411 88.631 C 228.021 88.650,229.154 89.824,228.985 90.263 C 228.873 90.555,228.962 90.645,229.254 90.533 C 229.802 90.322,229.862 91.645,229.329 92.178 C 229.048 92.459,229.054 92.540,229.356 92.540 C 229.822 92.540,230.873 93.737,230.887 94.285 C 230.901 94.837,233.287 97.109,233.630 96.898 C 234.015 96.660,234.192 97.225,234.294 99.020 C 234.354 100.085,234.496 100.502,234.779 100.442 C 235.000 100.394,235.384 100.525,235.633 100.732 C 236.002 101.038,236.156 101.012,236.464 100.591 C 236.671 100.308,237.097 100.073,237.411 100.071 C 238.108 100.065,238.580 99.768,238.841 99.171 C 238.949 98.922,238.989 99.088,238.930 99.539 C 238.870 99.990,238.930 100.291,239.064 100.209 C 239.197 100.126,239.460 100.345,239.648 100.696 C 240.480 102.252,240.083 100.711,238.318 95.541 C 237.274 92.481,236.105 89.031,235.721 87.874 C 235.149 86.154,234.975 85.880,234.763 86.367 C 234.561 86.832,234.539 86.784,234.663 86.145 C 234.759 85.652,234.527 84.574,234.081 83.432 C 233.673 82.390,232.850 80.181,232.252 78.523 C 231.654 76.865,231.045 75.237,230.899 74.906 C 230.434 73.852,228.578 69.006,227.147 65.109 C 225.151 59.672,223.447 57.476,220.419 56.434 C 219.042 55.960,216.121 55.745,215.222 56.051 M219.371 56.575 C 219.082 56.650,218.540 56.653,218.165 56.581 C 217.790 56.509,218.026 56.447,218.689 56.444 C 219.352 56.440,219.659 56.499,219.371 56.575 M213.263 57.272 C 213.161 57.438,212.873 57.573,212.625 57.573 C 212.376 57.573,212.256 57.438,212.359 57.272 C 212.461 57.106,212.748 56.971,212.997 56.971 C 213.246 56.971,213.365 57.106,213.263 57.272 M203.165 59.382 C 202.544 59.581,202.518 59.628,203.014 59.649 C 203.346 59.663,203.821 59.543,204.069 59.382 C 204.597 59.041,204.231 59.041,203.165 59.382 M197.589 61.216 C 196.760 61.536,196.473 61.722,196.952 61.629 C 197.900 61.445,199.887 60.638,199.397 60.636 C 199.231 60.635,198.417 60.896,197.589 61.216 M194.574 62.256 C 193.820 62.619,193.795 62.661,194.424 62.508 C 195.278 62.299,196.238 61.810,195.780 61.816 C 195.614 61.819,195.072 62.017,194.574 62.256 M186.161 73.271 C 185.732 73.781,185.381 74.358,185.382 74.552 C 185.382 74.747,185.644 74.477,185.964 73.953 C 186.284 73.428,186.792 72.856,187.093 72.681 C 187.395 72.505,187.484 72.358,187.291 72.353 C 187.099 72.348,186.590 72.761,186.161 73.271 M189.869 72.911 C 190.265 73.216,190.839 73.789,191.143 74.185 C 191.448 74.582,191.700 74.809,191.704 74.690 C 191.716 74.314,189.854 72.343,189.494 72.350 C 189.304 72.354,189.473 72.606,189.869 72.911 M191.736 75.207 C 191.687 76.143,192.277 76.301,196.039 76.356 C 198.568 76.394,199.526 76.328,198.878 76.160 C 198.341 76.021,196.649 75.953,195.119 76.009 C 192.582 76.103,192.312 76.059,192.045 75.509 C 191.883 75.177,191.744 75.041,191.736 75.207 M185.554 76.262 C 185.667 76.677,185.777 77.376,185.796 77.816 C 185.816 78.256,185.934 78.553,186.059 78.476 C 186.407 78.261,186.330 77.634,185.816 76.523 C 185.534 75.912,185.429 75.808,185.554 76.262 M201.206 77.178 C 203.825 78.641,204.323 80.892,202.442 82.773 C 201.383 83.832,201.403 84.205,202.469 83.271 C 204.791 81.234,203.869 77.365,200.904 76.706 C 200.082 76.523,200.110 76.566,201.206 77.178 M183.562 80.407 L 181.914 82.140 183.647 80.493 C 185.258 78.962,185.519 78.674,185.295 78.674 C 185.248 78.674,184.468 79.454,183.562 80.407 M194.428 82.818 C 194.431 82.943,194.579 83.248,194.758 83.497 C 195.035 83.882,195.059 83.874,194.920 83.438 C 194.787 83.023,194.995 82.905,196.022 82.812 L 197.287 82.698 195.855 82.645 C 195.068 82.616,194.426 82.694,194.428 82.818 M199.397 83.798 C 199.729 83.941,200.203 84.057,200.452 84.057 C 200.737 84.057,200.681 83.961,200.301 83.798 C 199.970 83.656,199.495 83.539,199.246 83.539 C 198.961 83.539,199.017 83.635,199.397 83.798 M195.026 84.321 C 195.026 84.760,196.811 88.855,196.824 88.447 C 196.835 88.123,195.376 84.363,195.147 84.125 C 195.081 84.056,195.026 84.144,195.026 84.321 M188.548 84.699 C 188.446 84.864,188.555 84.924,188.792 84.833 C 189.062 84.729,189.286 84.920,189.398 85.350 C 189.496 85.726,189.661 85.948,189.764 85.845 C 190.002 85.607,189.368 84.401,189.005 84.401 C 188.855 84.401,188.649 84.535,188.548 84.699 M180.058 88.470 C 180.059 89.797,180.112 90.302,180.176 89.593 C 180.240 88.884,180.239 87.799,180.174 87.181 C 180.109 86.564,180.057 87.144,180.058 88.470 M186.921 88.060 C 186.901 88.724,187.096 89.384,187.415 89.732 C 187.705 90.048,187.836 90.146,187.706 89.948 C 187.576 89.751,187.354 88.999,187.212 88.276 L 186.954 86.963 186.921 88.060 M190.830 88.206 C 190.817 88.393,191.010 89.122,191.258 89.827 C 191.811 91.393,191.817 91.262,191.183 91.427 C 190.786 91.531,190.823 91.574,191.334 91.600 C 191.707 91.620,192.002 91.466,191.989 91.258 C 191.954 90.700,190.857 87.811,190.830 88.206 M197.764 91.445 C 197.833 91.506,199.382 91.619,201.206 91.696 C 203.029 91.773,204.115 91.739,203.617 91.621 C 202.690 91.400,197.538 91.245,197.764 91.445 M205.275 92.038 C 205.275 92.115,205.713 92.332,206.248 92.518 C 206.783 92.705,207.088 92.733,206.926 92.582 C 206.583 92.260,205.275 91.829,205.275 92.038 M208.531 93.771 C 209.227 94.283,209.801 94.792,209.807 94.902 C 209.813 95.012,210.167 95.509,210.593 96.006 L 211.368 96.910 210.808 95.903 C 210.179 94.769,208.175 92.841,207.626 92.841 C 207.428 92.841,207.836 93.260,208.531 93.771 M191.560 98.186 C 193.372 98.260,194.065 98.409,194.348 98.786 C 194.555 99.061,194.725 99.152,194.725 98.988 C 194.725 98.215,193.913 97.968,191.575 98.026 L 189.148 98.087 191.560 98.186 M200.175 98.644 C 200.190 99.097,200.255 99.172,200.370 98.870 C 200.465 98.621,200.692 98.318,200.874 98.196 C 201.079 98.059,201.004 97.973,200.678 97.970 C 200.324 97.967,200.159 98.188,200.175 98.644 M202.261 98.719 C 203.655 99.256,204.105 99.256,203.165 98.719 C 202.751 98.482,202.140 98.294,201.809 98.300 C 201.414 98.308,201.570 98.453,202.261 98.719 M212.126 100.981 C 212.291 104.303,212.461 104.755,212.464 101.884 C 212.466 100.641,212.361 99.353,212.232 99.022 C 212.103 98.691,212.055 99.573,212.126 100.981 M204.806 100.231 C 205.607 101.410,205.668 102.317,205.055 103.914 C 204.940 104.215,204.993 104.319,205.198 104.193 C 206.247 103.544,205.808 100.540,204.505 99.459 C 204.225 99.227,204.361 99.574,204.806 100.231 M201.249 101.581 C 201.356 101.995,201.696 102.877,202.004 103.541 C 202.311 104.204,202.475 104.409,202.368 103.995 C 202.261 103.581,201.921 102.700,201.614 102.036 C 201.306 101.372,201.142 101.167,201.249 101.581 M240.245 101.909 C 240.250 102.415,241.918 107.278,242.174 107.535 C 242.271 107.632,242.351 107.897,242.351 108.123 C 242.351 108.700,243.233 110.749,243.406 110.575 C 243.546 110.436,240.666 101.907,240.384 101.625 C 240.305 101.546,240.243 101.674,240.245 101.909 M211.680 105.275 C 211.356 106.161,211.364 106.199,211.765 105.670 C 212.148 105.163,212.375 104.295,212.123 104.295 C 212.077 104.295,211.877 104.736,211.680 105.275 M204.140 105.263 C 203.482 105.921,203.469 105.922,202.994 105.338 C 202.558 104.803,202.529 104.799,202.688 105.300 C 202.785 105.603,202.864 105.909,202.864 105.978 C 202.864 106.372,203.763 105.998,204.371 105.350 C 205.245 104.420,205.055 104.348,204.140 105.263 M189.902 106.523 C 189.902 106.588,190.367 106.695,190.936 106.762 C 191.505 106.828,191.903 106.775,191.822 106.644 C 191.677 106.408,189.902 106.296,189.902 106.523 M209.024 109.194 L 208.139 110.173 209.118 109.288 C 209.657 108.801,210.098 108.360,210.098 108.308 C 210.098 108.075,209.849 108.280,209.024 109.194 M277.109 111.680 C 277.111 112.675,277.167 113.046,277.234 112.504 C 277.301 111.962,277.300 111.148,277.231 110.695 C 277.162 110.242,277.108 110.686,277.109 111.680 M243.557 111.172 C 243.557 111.362,243.747 112.029,243.979 112.654 C 244.211 113.279,244.571 114.469,244.779 115.298 C 245.177 116.882,245.550 117.558,246.027 117.558 C 246.184 117.558,246.100 117.345,245.839 117.085 C 245.579 116.824,245.365 116.373,245.365 116.083 C 245.365 115.531,243.974 111.243,243.709 110.978 C 243.625 110.895,243.557 110.982,243.557 111.172 M303.029 129.013 C 303.029 129.925,303.086 130.298,303.155 129.842 C 303.224 129.386,303.224 128.640,303.155 128.184 C 303.086 127.728,303.029 128.101,303.029 129.013 M327.750 134.589 C 327.751 135.584,327.808 135.955,327.875 135.413 C 327.942 134.871,327.941 134.057,327.872 133.604 C 327.803 133.151,327.748 133.595,327.750 134.589 M328.040 140.467 C 328.040 141.213,328.099 141.518,328.171 141.145 C 328.242 140.772,328.242 140.162,328.171 139.789 C 328.099 139.416,328.040 139.721,328.040 140.467 M284.979 145.139 C 284.979 148.289,285.024 149.537,285.078 147.912 C 285.132 146.287,285.132 143.710,285.077 142.185 C 285.023 140.660,284.978 141.989,284.979 145.139 M328.028 144.386 C 328.028 144.966,328.090 145.203,328.166 144.913 C 328.241 144.623,328.241 144.148,328.166 143.858 C 328.090 143.568,328.028 143.806,328.028 144.386 M328.080 153.278 C 328.080 155.931,328.126 156.975,328.182 155.600 C 328.238 154.224,328.238 152.054,328.182 150.777 C 328.125 149.500,328.079 150.625,328.080 153.278 M269.861 157.865 C 270.319 157.934,270.997 157.933,271.368 157.861 C 271.739 157.789,271.364 157.733,270.535 157.735 C 269.706 157.737,269.403 157.796,269.861 157.865 M278.146 157.862 C 278.519 157.933,279.130 157.933,279.503 157.862 C 279.876 157.790,279.570 157.731,278.824 157.731 C 278.078 157.731,277.773 157.790,278.146 157.862 M327.777 174.981 C 327.777 177.468,327.824 178.445,327.881 177.153 C 327.937 175.860,327.937 173.826,327.880 172.631 C 327.823 171.437,327.777 172.494,327.777 174.981 M327.239 185.396 C 327.100 187.974,327.045 190.348,327.118 190.671 C 327.296 191.466,327.740 183.432,327.602 181.914 C 327.541 181.251,327.378 182.818,327.239 185.396 M302.939 193.991 C 302.939 195.411,302.796 196.869,302.621 197.232 C 302.314 197.868,302.319 197.870,302.772 197.305 C 303.215 196.752,303.503 191.409,303.090 191.409 C 303.007 191.409,302.939 192.571,302.939 193.991 M326.647 194.273 C 326.522 195.599,326.291 197.592,326.134 198.701 C 325.976 199.811,325.842 201.506,325.835 202.469 C 325.828 203.432,325.647 204.966,325.433 205.878 L 325.043 207.536 324.832 205.689 C 324.688 204.433,324.431 203.670,324.028 203.306 C 323.693 203.003,323.436 202.382,323.436 201.876 C 323.436 201.208,323.341 201.054,323.060 201.267 C 322.852 201.425,322.106 201.540,321.402 201.524 C 320.612 201.505,320.121 201.628,320.121 201.844 C 320.121 202.037,319.646 202.250,319.066 202.318 C 318.338 202.403,318.011 202.320,318.011 202.049 C 318.011 201.834,318.214 201.658,318.463 201.658 C 318.711 201.658,318.915 201.427,318.915 201.145 C 318.915 200.747,318.834 200.713,318.553 200.995 C 318.354 201.194,317.642 201.357,316.971 201.358 C 316.299 201.359,315.359 201.564,314.880 201.814 C 314.224 202.156,313.910 202.183,313.599 201.926 C 313.280 201.661,313.188 201.694,313.188 202.073 C 313.188 202.342,313.052 202.562,312.886 202.562 C 312.720 202.562,312.585 202.359,312.585 202.110 C 312.585 201.758,312.181 201.658,310.756 201.658 C 309.064 201.658,308.941 201.703,309.118 202.261 C 309.355 203.007,308.781 203.061,308.012 202.365 C 307.496 201.898,307.458 201.903,307.425 202.440 C 307.405 202.766,307.301 202.623,307.185 202.110 C 307.041 201.476,306.911 202.151,306.747 204.371 C 306.619 206.112,306.465 208.011,306.405 208.591 C 306.344 209.171,306.147 213.173,305.966 217.483 C 305.587 226.536,305.253 229.688,304.389 232.367 C 303.715 234.454,301.555 238.433,301.095 238.433 C 300.938 238.433,300.712 238.676,300.593 238.973 C 299.467 241.787,293.770 245.926,290.975 245.960 C 290.612 245.965,290.240 246.089,290.149 246.236 C 289.910 246.622,287.885 246.810,286.736 246.552 C 285.803 246.343,285.658 246.441,283.773 248.547 C 275.776 257.483,268.195 259.356,244.014 258.372 C 241.364 258.265,238.380 258.257,237.383 258.356 C 236.385 258.456,236.010 258.557,236.549 258.583 C 237.087 258.608,237.528 258.722,237.528 258.837 C 237.528 259.341,234.006 262.245,233.394 262.246 C 233.027 262.246,232.589 262.503,232.420 262.818 C 232.209 263.213,231.787 263.391,231.059 263.391 C 230.330 263.391,229.633 263.685,228.803 264.343 C 228.142 264.866,227.120 265.373,226.532 265.468 C 225.467 265.641,225.492 266.466,226.563 266.466 C 226.791 266.466,226.978 266.587,226.978 266.735 C 226.978 266.884,226.639 266.985,226.225 266.961 C 225.810 266.937,225.471 266.800,225.471 266.655 C 225.471 266.510,225.276 266.554,225.037 266.752 C 224.798 266.950,224.672 267.292,224.756 267.512 C 224.943 268.001,224.568 268.256,223.539 268.341 C 223.109 268.377,222.758 268.583,222.758 268.800 C 222.758 269.320,221.492 269.781,220.063 269.781 C 219.418 269.781,218.751 269.976,218.545 270.226 C 218.076 270.790,215.568 270.746,214.875 270.162 C 214.539 269.878,214.314 269.846,214.179 270.063 C 214.070 270.240,214.125 270.384,214.300 270.384 C 214.476 270.384,214.619 270.535,214.619 270.718 C 214.619 270.928,214.327 270.979,213.837 270.856 C 213.394 270.745,212.873 270.811,212.635 271.008 C 212.404 271.199,212.021 271.281,211.782 271.190 C 210.964 270.876,209.194 271.571,209.194 272.207 C 209.194 272.531,209.016 272.796,208.798 272.796 C 208.580 272.796,208.009 273.206,207.528 273.708 C 207.032 274.226,206.468 274.548,206.223 274.454 C 205.985 274.363,205.573 274.483,205.307 274.720 C 204.738 275.227,203.472 275.437,202.948 275.110 C 202.682 274.945,202.591 275.177,202.620 275.946 C 202.667 277.213,201.966 278.106,200.708 278.382 C 200.220 278.489,199.659 278.836,199.461 279.153 C 199.263 279.470,198.803 279.729,198.438 279.729 C 198.073 279.729,197.699 279.851,197.607 280.000 C 197.515 280.150,197.027 280.416,196.524 280.591 C 195.982 280.780,195.681 280.792,195.787 280.621 C 195.886 280.462,195.825 280.332,195.653 280.332 C 195.480 280.332,195.254 280.671,195.150 281.085 C 195.032 281.557,194.748 281.839,194.391 281.839 C 193.958 281.839,193.821 282.057,193.821 282.743 L 193.821 283.647 195.705 283.683 C 197.204 283.711,197.404 283.766,196.684 283.949 C 195.923 284.142,196.043 284.185,197.438 284.220 C 202.214 284.338,208.758 284.639,208.874 284.745 C 209.217 285.059,160.535 284.734,154.182 284.379 C 146.868 283.972,143.298 283.868,143.507 284.071 C 144.583 285.117,209.412 285.770,225.320 284.894 C 238.855 284.150,245.814 283.489,257.423 281.847 C 291.616 277.011,311.399 261.417,320.725 231.952 C 322.597 226.035,323.006 224.263,324.513 215.524 C 325.819 207.950,327.252 194.751,326.988 192.724 C 326.926 192.249,326.773 192.946,326.647 194.273 M300.678 199.668 C 299.849 200.532,298.832 201.473,298.417 201.759 C 297.684 202.264,297.683 202.269,298.386 201.934 C 299.271 201.512,301.665 199.334,302.065 198.587 C 302.475 197.821,302.376 197.898,300.678 199.668 M253.504 200.546 C 253.504 200.598,253.945 201.039,254.484 201.526 L 255.463 202.411 254.578 201.432 C 253.753 200.519,253.504 200.314,253.504 200.546 M246.873 203.561 C 246.873 203.613,247.313 204.054,247.852 204.540 L 248.832 205.426 247.947 204.446 C 247.121 203.533,246.873 203.328,246.873 203.561 M290.430 205.275 C 290.050 205.438,289.994 205.534,290.279 205.534 C 290.528 205.534,291.002 205.418,291.334 205.275 C 291.714 205.112,291.770 205.016,291.485 205.016 C 291.236 205.016,290.761 205.133,290.430 205.275 M250.038 206.782 C 250.685 207.445,251.283 207.988,251.366 207.988 C 251.449 207.988,250.987 207.445,250.339 206.782 C 249.692 206.119,249.094 205.576,249.011 205.576 C 248.928 205.576,249.390 206.119,250.038 206.782 M286.963 206.179 C 286.366 206.370,286.335 206.421,286.812 206.421 C 287.144 206.421,287.754 206.312,288.169 206.179 C 288.766 205.988,288.797 205.938,288.320 205.938 C 287.988 205.938,287.378 206.047,286.963 206.179 M267.295 207.296 C 267.668 207.368,268.278 207.368,268.651 207.296 C 269.024 207.225,268.719 207.166,267.973 207.166 C 267.227 207.166,266.922 207.225,267.295 207.296 M271.967 207.610 C 273.417 207.665,275.791 207.665,277.242 207.610 C 278.693 207.554,277.506 207.509,274.604 207.509 C 271.703 207.509,270.516 207.554,271.967 207.610 M299.556 208.410 C 297.854 209.421,297.764 209.707,299.435 208.792 C 300.243 208.350,301.042 207.988,301.210 207.988 C 301.745 207.988,301.284 227.369,300.698 229.508 C 300.289 231.000,300.242 232.453,300.645 231.166 C 300.717 230.935,300.937 230.271,301.134 229.691 C 301.370 228.997,301.548 225.053,301.655 218.161 C 301.837 206.356,301.970 206.975,299.556 208.410 M296.348 209.987 C 295.790 210.231,295.404 210.501,295.490 210.587 C 295.577 210.674,296.169 210.469,296.807 210.133 C 298.143 209.428,297.845 209.334,296.348 209.987 M257.724 211.907 C 258.304 212.224,258.983 212.487,259.231 212.490 C 259.480 212.493,259.092 212.228,258.369 211.900 C 256.707 211.146,256.341 211.149,257.724 211.907 M292.690 211.523 C 291.843 211.846,291.795 212.364,291.791 221.301 C 291.788 227.220,291.680 230.279,291.473 230.348 C 291.300 230.406,291.026 231.807,290.864 233.463 C 290.702 235.119,290.452 236.745,290.310 237.076 C 290.051 237.680,289.375 241.017,289.375 241.691 C 289.375 243.049,294.123 240.656,296.703 237.998 C 298.084 236.575,300.230 233.056,300.217 232.236 C 300.212 231.914,299.655 232.698,298.980 233.978 C 297.553 236.687,295.674 238.665,292.987 240.290 C 290.315 241.905,289.609 241.851,290.282 240.082 C 291.474 236.948,292.041 231.436,292.235 221.117 C 292.328 216.153,292.435 212.070,292.472 212.044 C 292.509 212.017,292.811 211.844,293.142 211.659 C 293.768 211.309,293.480 211.223,292.690 211.523 M263.301 213.715 C 263.632 213.858,264.175 213.970,264.506 213.965 C 264.991 213.958,264.961 213.909,264.356 213.715 C 263.325 213.385,262.533 213.385,263.301 213.715 M283.647 213.981 C 284.689 214.165,284.704 214.190,284.878 215.976 L 285.053 217.784 285.104 216.227 C 285.175 214.026,284.993 213.708,283.690 213.755 L 282.592 213.795 283.647 213.981 M267.370 214.364 C 268.282 214.472,271.198 214.560,273.851 214.560 C 276.503 214.560,279.420 214.472,280.332 214.364 C 281.243 214.256,278.327 214.167,273.851 214.167 C 269.375 214.167,266.458 214.256,267.370 214.364 M284.546 224.642 C 284.535 237.355,283.187 242.562,278.731 247.115 C 273.754 252.201,269.858 253.177,254.258 253.246 C 244.744 253.289,244.333 253.312,248.531 253.565 C 262.753 254.422,272.863 252.933,276.895 249.388 C 277.243 249.082,278.002 248.414,278.582 247.902 C 283.118 243.902,284.509 239.469,284.726 228.335 C 284.803 224.356,284.908 220.388,284.960 219.518 C 285.011 218.647,284.940 217.935,284.802 217.935 C 284.665 217.935,284.549 220.953,284.546 224.642 M180.332 246.779 C 180.622 246.855,181.096 246.855,181.387 246.779 C 181.677 246.703,181.439 246.641,180.859 246.641 C 180.279 246.641,180.041 246.703,180.332 246.779 M191.485 248.286 C 191.775 248.362,192.249 248.362,192.540 248.286 C 192.830 248.210,192.592 248.148,192.012 248.148 C 191.432 248.148,191.194 248.210,191.485 248.286 M194.876 248.670 C 195.797 248.916,198.244 249.073,198.016 248.872 C 197.946 248.811,197.008 248.686,195.931 248.595 C 194.696 248.490,194.306 248.517,194.876 248.670 M201.135 249.500 C 201.593 249.570,202.271 249.568,202.642 249.496 C 203.012 249.425,202.638 249.368,201.809 249.370 C 200.980 249.373,200.676 249.431,201.135 249.500 M207.536 250.202 C 208.365 250.331,209.518 250.431,210.098 250.423 C 210.951 250.412,210.865 250.364,209.646 250.175 C 208.817 250.045,207.664 249.946,207.084 249.954 C 206.230 249.965,206.317 250.012,207.536 250.202 M213.263 250.805 C 214.092 250.934,215.245 251.034,215.825 251.026 C 216.679 251.015,216.592 250.967,215.373 250.777 C 214.544 250.648,213.391 250.549,212.811 250.557 C 211.957 250.568,212.044 250.615,213.263 250.805 M218.839 251.393 C 220.214 251.654,223.265 251.791,223.034 251.581 C 222.965 251.518,221.688 251.392,220.196 251.301 C 218.242 251.181,217.862 251.207,218.839 251.393 M224.039 251.903 C 224.329 251.979,224.804 251.979,225.094 251.903 C 225.384 251.828,225.147 251.765,224.567 251.765 C 223.986 251.765,223.749 251.828,224.039 251.903 M229.691 252.461 C 231.929 252.672,236.066 252.916,238.885 253.004 L 244.009 253.164 239.638 252.892 C 237.234 252.742,233.768 252.480,231.936 252.308 C 230.103 252.137,227.933 252.015,227.113 252.038 C 226.293 252.060,227.453 252.251,229.691 252.461 M78.222 261.341 C 79.373 262.502,80.383 263.451,80.466 263.451 C 80.549 263.451,79.675 262.502,78.523 261.341 C 77.371 260.181,76.361 259.231,76.278 259.231 C 76.196 259.231,77.070 260.181,78.222 261.341 M211.522 272.210 C 211.622 272.590,211.850 272.766,212.113 272.666 C 212.350 272.574,212.459 272.634,212.356 272.800 C 212.102 273.212,209.495 272.659,209.495 272.194 C 209.495 271.971,209.919 271.823,211.106 271.631 C 211.246 271.609,211.433 271.869,211.522 272.210 M210.532 273.540 C 209.779 274.109,209.495 274.112,209.495 273.549 C 209.495 273.259,209.786 273.097,210.306 273.097 C 211.084 273.097,211.094 273.115,210.532 273.540 M112.283 279.427 C 112.615 279.570,113.090 279.686,113.338 279.686 C 113.623 279.686,113.568 279.591,113.188 279.427 C 112.856 279.285,112.381 279.168,112.133 279.168 C 111.848 279.168,111.903 279.264,112.283 279.427 M116.051 280.332 C 117.082 280.662,117.874 280.662,117.106 280.332 C 116.775 280.189,116.232 280.077,115.901 280.081 C 115.416 280.088,115.445 280.138,116.051 280.332 M201.959 280.332 C 201.959 280.497,201.811 280.633,201.631 280.633 C 201.450 280.633,201.055 280.938,200.752 281.311 C 200.450 281.684,200.114 281.901,200.005 281.793 C 199.684 281.473,200.530 280.367,201.195 280.234 C 201.533 280.167,201.843 280.094,201.884 280.071 C 201.925 280.049,201.959 280.166,201.959 280.332 M118.915 280.934 C 119.412 281.061,120.226 281.165,120.723 281.166 C 121.484 281.166,121.436 281.127,120.422 280.917 C 118.895 280.601,117.661 280.615,118.915 280.934 M122.381 281.537 C 122.796 281.670,123.474 281.779,123.888 281.779 L 124.642 281.779 123.888 281.537 C 123.474 281.405,122.796 281.296,122.381 281.296 L 121.628 281.296 122.381 281.537 M126.752 282.110 C 129.473 282.658,133.120 283.108,133.685 282.965 C 134.027 282.879,133.767 282.795,133.082 282.771 C 132.419 282.747,131.334 282.608,130.671 282.461 C 130.008 282.314,128.583 282.121,127.506 282.030 C 126.070 281.910,125.869 281.932,126.752 282.110 M137.302 283.491 C 138.960 283.711,140.927 283.888,141.673 283.885 L 143.029 283.878 141.673 283.651 C 140.927 283.525,138.960 283.348,137.302 283.256 L 134.288 283.090 137.302 283.491 M193.447 284.162 C 193.822 284.234,194.365 284.231,194.653 284.156 C 194.941 284.080,194.635 284.021,193.971 284.025 C 193.308 284.028,193.072 284.090,193.447 284.162 " stroke="none" fill="#28a9b2" fill-rule="evenodd"/></g></svg>